<svg id="visual" viewBox="0 0 960 540" width="960" height="540" xmlns="http://www.w3.org/2000/svg" xmlns:xlink="http://www.w3.org/1999/xlink" version="1.1"><path d="M0 77L14.5 74.2C29 71.3 58 65.7 87.2 59.3C116.3 53 145.7 46 174.8 48.8C204 51.7 233 64.3 262 70.7C291 77 320 77 349 78.7C378 80.3 407 83.7 436.2 83.7C465.3 83.7 494.7 80.3 523.8 81.3C553 82.3 582 87.7 611 85.8C640 84 669 75 698 68.7C727 62.3 756 58.7 785.2 53.2C814.3 47.7 843.7 40.3 872.8 40.3C902 40.3 931 47.7 945.5 51.3L960 55L960 0L945.5 0C931 0 902 0 872.8 0C843.7 0 814.3 0 785.2 0C756 0 727 0 698 0C669 0 640 0 611 0C582 0 553 0 523.8 0C494.7 0 465.3 0 436.2 0C407 0 378 0 349 0C320 0 291 0 262 0C233 0 204 0 174.8 0C145.7 0 116.3 0 87.2 0C58 0 29 0 14.5 0L0 0Z" fill="#fd7c32"></path><path d="M0 147L14.5 145.2C29 143.3 58 139.7 87.2 137.8C116.3 136 145.7 136 174.8 151.3C204 166.7 233 197.3 262 204.5C291 211.7 320 195.3 349 192.7C378 190 407 201 436.2 200.2C465.3 199.3 494.7 186.7 523.8 185.7C553 184.7 582 195.3 611 205.2C640 215 669 224 698 221.3C727 218.7 756 204.3 785.2 182.8C814.3 161.3 843.7 132.7 872.8 130.8C902 129 931 154 945.5 166.5L960 179L960 53L945.5 49.3C931 45.7 902 38.3 872.8 38.3C843.7 38.3 814.3 45.7 785.2 51.2C756 56.7 727 60.3 698 66.7C669 73 640 82 611 83.8C582 85.7 553 80.3 523.8 79.3C494.7 78.3 465.3 81.7 436.2 81.7C407 81.7 378 78.3 349 76.7C320 75 291 75 262 68.7C233 62.3 204 49.7 174.8 46.8C145.7 44 116.3 51 87.2 57.3C58 63.7 29 69.3 14.5 72.2L0 75Z" fill="#f5653d"></path><path d="M0 179L14.5 182.7C29 186.3 58 193.7 87.2 196.3C116.3 199 145.7 197 174.8 206C204 215 233 235 262 242.3C291 249.7 320 244.3 349 242.5C378 240.7 407 242.3 436.2 240.5C465.3 238.7 494.7 233.3 523.8 231.5C553 229.7 582 231.3 611 235.8C640 240.3 669 247.7 698 248.7C727 249.7 756 244.3 785.2 226.3C814.3 208.3 843.7 177.7 872.8 172.2C902 166.7 931 186.3 945.5 196.2L960 206L960 177L945.5 164.5C931 152 902 127 872.8 128.8C843.7 130.7 814.3 159.3 785.2 180.8C756 202.3 727 216.7 698 219.3C669 222 640 213 611 203.2C582 193.3 553 182.7 523.8 183.7C494.7 184.7 465.3 197.3 436.2 198.2C407 199 378 188 349 190.7C320 193.3 291 209.7 262 202.5C233 195.3 204 164.7 174.8 149.3C145.7 134 116.3 134 87.2 135.8C58 137.7 29 141.3 14.5 143.2L0 145Z" fill="#e84e47"></path><path d="M0 282L14.5 284.7C29 287.3 58 292.7 87.2 296.2C116.3 299.7 145.7 301.3 174.8 306.7C204 312 233 321 262 323.8C291 326.7 320 323.3 349 323.3C378 323.3 407 326.7 436.2 316.7C465.3 306.7 494.7 283.3 523.8 280.7C553 278 582 296 611 315.8C640 335.7 669 357.3 698 352.8C727 348.3 756 317.7 785.2 299.7C814.3 281.7 843.7 276.3 872.8 280C902 283.7 931 296.3 945.5 302.7L960 309L960 204L945.5 194.2C931 184.3 902 164.7 872.8 170.2C843.7 175.7 814.3 206.3 785.2 224.3C756 242.3 727 247.7 698 246.7C669 245.7 640 238.3 611 233.8C582 229.3 553 227.7 523.8 229.5C494.7 231.3 465.3 236.7 436.2 238.5C407 240.3 378 238.7 349 240.5C320 242.3 291 247.7 262 240.3C233 233 204 213 174.8 204C145.7 195 116.3 197 87.2 194.3C58 191.7 29 184.3 14.5 180.7L0 177Z" fill="#d9394f"></path><path d="M0 401L14.5 406.3C29 411.7 58 422.3 87.2 425.8C116.3 429.3 145.7 425.7 174.8 428.3C204 431 233 440 262 435.5C291 431 320 413 349 413C378 413 407 431 436.2 435.5C465.3 440 494.7 431 523.8 429.2C553 427.3 582 432.7 611 437.2C640 441.7 669 445.3 698 434.7C727 424 756 399 785.2 396.3C814.3 393.7 843.7 413.3 872.8 423.2C902 433 931 433 945.5 433L960 433L960 307L945.5 300.7C931 294.3 902 281.7 872.8 278C843.7 274.3 814.3 279.7 785.2 297.7C756 315.7 727 346.3 698 350.8C669 355.3 640 333.7 611 313.8C582 294 553 276 523.8 278.7C494.7 281.3 465.3 304.7 436.2 314.7C407 324.7 378 321.3 349 321.3C320 321.3 291 324.7 262 321.8C233 319 204 310 174.8 304.7C145.7 299.3 116.3 297.7 87.2 294.2C58 290.7 29 285.3 14.5 282.7L0 280Z" fill="#c62556"></path><path d="M0 449L14.5 450C29 451 58 453 87.2 453C116.3 453 145.7 451 174.8 455.5C204 460 233 471 262 469.2C291 467.3 320 452.7 349 449.8C378 447 407 456 436.2 457.8C465.3 459.7 494.7 454.3 523.8 457.2C553 460 582 471 611 477.3C640 483.7 669 485.3 698 475.3C727 465.3 756 443.7 785.2 440C814.3 436.3 843.7 450.7 872.8 455.2C902 459.7 931 454.3 945.5 451.7L960 449L960 431L945.5 431C931 431 902 431 872.8 421.2C843.7 411.3 814.3 391.7 785.2 394.3C756 397 727 422 698 432.7C669 443.3 640 439.7 611 435.2C582 430.7 553 425.3 523.8 427.2C494.7 429 465.3 438 436.2 433.5C407 429 378 411 349 411C320 411 291 429 262 433.5C233 438 204 429 174.8 426.3C145.7 423.7 116.3 427.3 87.2 423.8C58 420.3 29 409.7 14.5 404.3L0 399Z" fill="#b0135c"></path><path d="M0 498L14.5 498.8C29 499.7 58 501.3 87.2 502.2C116.3 503 145.7 503 174.8 504.8C204 506.7 233 510.3 262 511.3C291 512.3 320 510.7 349 509.8C378 509 407 509 436.2 509.8C465.3 510.7 494.7 512.3 523.8 512.3C553 512.3 582 510.7 611 510.7C640 510.7 669 512.3 698 508.7C727 505 756 496 785.2 492.3C814.3 488.7 843.7 490.3 872.8 490.3C902 490.3 931 488.7 945.5 487.8L960 487L960 447L945.5 449.7C931 452.3 902 457.7 872.8 453.2C843.7 448.7 814.3 434.3 785.2 438C756 441.7 727 463.3 698 473.3C669 483.3 640 481.7 611 475.3C582 469 553 458 523.8 455.2C494.7 452.3 465.3 457.7 436.2 455.8C407 454 378 445 349 447.8C320 450.7 291 465.3 262 467.2C233 469 204 458 174.8 453.5C145.7 449 116.3 451 87.2 451C58 451 29 449 14.5 448L0 447Z" fill="#98065f"></path><path d="M0 541L14.5 541C29 541 58 541 87.2 541C116.3 541 145.7 541 174.8 541C204 541 233 541 262 541C291 541 320 541 349 541C378 541 407 541 436.2 541C465.3 541 494.7 541 523.8 541C553 541 582 541 611 541C640 541 669 541 698 541C727 541 756 541 785.2 541C814.3 541 843.7 541 872.8 541C902 541 931 541 945.5 541L960 541L960 485L945.5 485.8C931 486.7 902 488.3 872.8 488.3C843.7 488.3 814.3 486.7 785.2 490.3C756 494 727 503 698 506.7C669 510.3 640 508.7 611 508.7C582 508.7 553 510.3 523.8 510.3C494.7 510.3 465.3 508.7 436.2 507.8C407 507 378 507 349 507.8C320 508.7 291 510.3 262 509.3C233 508.3 204 504.7 174.8 502.8C145.7 501 116.3 501 87.2 500.2C58 499.3 29 497.7 14.5 496.8L0 496Z" fill="#7e0360"></path></svg>